<mxfile host="app.diagrams.net" agent="Mozilla/5.0 (Macintosh; Intel Mac OS X 10_15_7) AppleWebKit/537.36 (KHTML, like Gecko) Chrome/130.0.0.0 Safari/537.36" version="24.8.3">
  <diagram name="Page-1" id="BMvxrxZRgeUrk3bZM39w">
    <mxGraphModel dx="2163" dy="1557" grid="1" gridSize="10" guides="1" tooltips="1" connect="1" arrows="1" fold="1" page="0" pageScale="1" pageWidth="827" pageHeight="1169" math="0" shadow="0">
      <root>
        <mxCell id="0" />
        <mxCell id="1" parent="0" />
        <mxCell id="agGsOwL4DvhfzS5u0xcM-3" value="Profile" style="whiteSpace=wrap;html=1;aspect=fixed;" parent="1" vertex="1">
          <mxGeometry x="160" y="-140" width="80" height="80" as="geometry" />
        </mxCell>
        <mxCell id="agGsOwL4DvhfzS5u0xcM-5" value="Profile details" style="html=1;dashed=0;whiteSpace=wrap;shape=partialRectangle;right=0;" parent="1" vertex="1">
          <mxGeometry x="60" y="-310" width="100" height="30" as="geometry" />
        </mxCell>
        <mxCell id="wRtexD6uXPgFD1ebs-WF-2" value="GroupJoinRequests" style="whiteSpace=wrap;html=1;aspect=fixed;" vertex="1" parent="1">
          <mxGeometry x="-360" y="-440" width="120" height="120" as="geometry" />
        </mxCell>
        <mxCell id="wRtexD6uXPgFD1ebs-WF-3" value="GroupJoinRequests details" style="html=1;dashed=0;whiteSpace=wrap;shape=partialRectangle;right=0;" vertex="1" parent="1">
          <mxGeometry x="-560" y="-380" width="140" height="30" as="geometry" />
        </mxCell>
        <mxCell id="wRtexD6uXPgFD1ebs-WF-9" value="Login" style="ellipse;whiteSpace=wrap;html=1;aspect=fixed;" vertex="1" parent="1">
          <mxGeometry x="-150" y="-240" width="80" height="80" as="geometry" />
        </mxCell>
        <mxCell id="wRtexD6uXPgFD1ebs-WF-15" value="Validates login credentials" style="text;html=1;align=center;verticalAlign=middle;whiteSpace=wrap;rounded=0;" vertex="1" parent="1">
          <mxGeometry x="80" y="-200" width="120" height="30" as="geometry" />
        </mxCell>
        <mxCell id="wRtexD6uXPgFD1ebs-WF-17" value="" style="endArrow=classic;html=1;rounded=0;edgeStyle=orthogonalEdgeStyle;exitX=0.75;exitY=0;exitDx=0;exitDy=0;entryX=1;entryY=0.5;entryDx=0;entryDy=0;strokeColor=default;curved=1;" edge="1" parent="1" source="agGsOwL4DvhfzS5u0xcM-3" target="agGsOwL4DvhfzS5u0xcM-5">
          <mxGeometry width="50" height="50" relative="1" as="geometry">
            <mxPoint x="374" y="-86" as="sourcePoint" />
            <mxPoint x="424" y="-136" as="targetPoint" />
          </mxGeometry>
        </mxCell>
        <mxCell id="wRtexD6uXPgFD1ebs-WF-18" value="Check for login credentials&amp;nbsp;" style="text;html=1;align=center;verticalAlign=middle;whiteSpace=wrap;rounded=0;" vertex="1" parent="1">
          <mxGeometry x="200" y="-270" width="110" height="30" as="geometry" />
        </mxCell>
        <mxCell id="wRtexD6uXPgFD1ebs-WF-23" value="" style="endArrow=classic;html=1;rounded=0;exitX=0.185;exitY=1.133;exitDx=0;exitDy=0;entryX=0;entryY=0.25;entryDx=0;entryDy=0;curved=1;edgeStyle=orthogonalEdgeStyle;exitPerimeter=0;" edge="1" parent="1" source="agGsOwL4DvhfzS5u0xcM-5" target="agGsOwL4DvhfzS5u0xcM-3">
          <mxGeometry width="50" height="50" relative="1" as="geometry">
            <mxPoint x="44" y="-216" as="sourcePoint" />
            <mxPoint x="94" y="-266" as="targetPoint" />
          </mxGeometry>
        </mxCell>
        <mxCell id="wRtexD6uXPgFD1ebs-WF-27" value="" style="endArrow=classic;html=1;rounded=0;exitX=0.994;exitY=0.659;exitDx=0;exitDy=0;entryX=0;entryY=0.75;entryDx=0;entryDy=0;curved=1;edgeStyle=orthogonalEdgeStyle;exitPerimeter=0;" edge="1" parent="1" source="wRtexD6uXPgFD1ebs-WF-9" target="agGsOwL4DvhfzS5u0xcM-3">
          <mxGeometry width="50" height="50" relative="1" as="geometry">
            <mxPoint x="-16" y="-116" as="sourcePoint" />
            <mxPoint x="45" y="10" as="targetPoint" />
          </mxGeometry>
        </mxCell>
        <mxCell id="wRtexD6uXPgFD1ebs-WF-28" value="Admin" style="rounded=0;whiteSpace=wrap;html=1;" vertex="1" parent="1">
          <mxGeometry x="360" y="-280" width="80" height="80" as="geometry" />
        </mxCell>
        <mxCell id="wRtexD6uXPgFD1ebs-WF-29" value="User" style="rounded=0;whiteSpace=wrap;html=1;" vertex="1" parent="1">
          <mxGeometry x="360" width="80" height="80" as="geometry" />
        </mxCell>
        <mxCell id="wRtexD6uXPgFD1ebs-WF-30" value="" style="endArrow=classic;html=1;rounded=0;exitX=0.5;exitY=1;exitDx=0;exitDy=0;entryX=0;entryY=0.5;entryDx=0;entryDy=0;curved=1;edgeStyle=orthogonalEdgeStyle;" edge="1" parent="1" source="agGsOwL4DvhfzS5u0xcM-3" target="wRtexD6uXPgFD1ebs-WF-29">
          <mxGeometry width="50" height="50" relative="1" as="geometry">
            <mxPoint x="200" y="-48" as="sourcePoint" />
            <mxPoint x="281" y="108" as="targetPoint" />
          </mxGeometry>
        </mxCell>
        <mxCell id="wRtexD6uXPgFD1ebs-WF-32" value="" style="endArrow=classic;html=1;rounded=0;exitX=1;exitY=0.25;exitDx=0;exitDy=0;entryX=0;entryY=0.5;entryDx=0;entryDy=0;curved=1;edgeStyle=orthogonalEdgeStyle;" edge="1" parent="1" source="agGsOwL4DvhfzS5u0xcM-3" target="wRtexD6uXPgFD1ebs-WF-28">
          <mxGeometry width="50" height="50" relative="1" as="geometry">
            <mxPoint x="300" y="-190" as="sourcePoint" />
            <mxPoint x="381" y="-34" as="targetPoint" />
          </mxGeometry>
        </mxCell>
        <mxCell id="wRtexD6uXPgFD1ebs-WF-33" value="request to join" style="rounded=0;whiteSpace=wrap;html=1;" vertex="1" parent="1">
          <mxGeometry x="560" y="-80" width="80" height="80" as="geometry" />
        </mxCell>
        <mxCell id="wRtexD6uXPgFD1ebs-WF-34" value="delete join request" style="rounded=0;whiteSpace=wrap;html=1;" vertex="1" parent="1">
          <mxGeometry x="560" y="20" width="80" height="80" as="geometry" />
        </mxCell>
        <mxCell id="wRtexD6uXPgFD1ebs-WF-35" value="vote on join" style="rounded=0;whiteSpace=wrap;html=1;" vertex="1" parent="1">
          <mxGeometry x="560" y="220" width="80" height="80" as="geometry" />
        </mxCell>
        <mxCell id="wRtexD6uXPgFD1ebs-WF-36" value="leave group" style="rounded=0;whiteSpace=wrap;html=1;" vertex="1" parent="1">
          <mxGeometry x="560" y="320" width="80" height="80" as="geometry" />
        </mxCell>
        <mxCell id="wRtexD6uXPgFD1ebs-WF-37" value="accept invite" style="rounded=0;whiteSpace=wrap;html=1;" vertex="1" parent="1">
          <mxGeometry x="560" y="120" width="80" height="80" as="geometry" />
        </mxCell>
        <mxCell id="wRtexD6uXPgFD1ebs-WF-38" value="group creation" style="rounded=0;whiteSpace=wrap;html=1;" vertex="1" parent="1">
          <mxGeometry x="560" y="-340" width="80" height="80" as="geometry" />
        </mxCell>
        <mxCell id="wRtexD6uXPgFD1ebs-WF-39" value="group deletion" style="rounded=0;whiteSpace=wrap;html=1;fillColor=default;gradientColor=none;" vertex="1" parent="1">
          <mxGeometry x="560" y="-440" width="80" height="80" as="geometry" />
        </mxCell>
        <mxCell id="wRtexD6uXPgFD1ebs-WF-40" value="invite users" style="rounded=0;whiteSpace=wrap;html=1;" vertex="1" parent="1">
          <mxGeometry x="560" y="-240" width="80" height="80" as="geometry" />
        </mxCell>
      </root>
    </mxGraphModel>
  </diagram>
</mxfile>
